<svg width="365.6199951171875px" height="63.239990234375px" xmlns="http://www.w3.org/2000/svg" viewBox="67.19000244140625 43.3800048828125 365.6199951171875 63.239990234375" style="background:#596886" preserveAspectRatio="xMidYMid"><defs><filter id="editing-hover" x="-100%" y="-100%" width="300%" height="300%"><feFlood flood-color="#052b4a" result="flood"></feFlood><feComposite operator="in" in2="SourceAlpha" in="flood" result="shadow"></feComposite><feOffset dx="-4" dy="-4" in="SourceGraphic" result="offset-1"></feOffset><feOffset dx="4" dy="4" in="shadow" result="offset-2"></feOffset><feMerge><feMergeNode in="offset-2"></feMergeNode><feMergeNode in="offset-1"></feMergeNode></feMerge></filter></defs><g filter="url(#editing-hover)"><g transform="translate(126.97676515579224, 86.64000034332275)"><path d="M-2.73 3.45L-2.73 3.45L-2.73 3.45Q-1.45 3.30-0.65 1.65L-0.65 1.65L-0.65 1.65Q0.18-0.03 0.93-3.88L0.93-3.88L3.35-16.50L8.78-16.50L6.35-3.88L6.35-3.88Q5.43 1.03 3.90 2.95L3.90 2.95L3.90 2.95Q3.10 3.95 2.09 4.35L2.09 4.35L2.09 4.35Q1.07 4.75-0.03 4.75L-0.03 4.75L-0.03 4.75Q-1.13 4.75-1.84 4.35L-1.84 4.35L-1.84 4.35Q-2.55 3.95-2.73 3.45ZM17.35-1.05L17.35-1.05L17.35-1.05Q16.15 0.50 13.18 0.50L13.18 0.50L13.18 0.50Q11.63 0.50 10.50-0.44L10.50-0.44L10.50-0.44Q9.38-1.38 9.38-2.73L9.38-2.73L9.38-2.73Q9.38-3.48 9.45-3.85L9.45-3.85L11.13-12.75L16.20-13.25L14.38-3.60L14.38-3.60Q14.28-3.05 14.28-2.73L14.28-2.73L14.28-2.73Q14.28-1.28 15.15-1.28L15.15-1.28L15.15-1.28Q16.13-1.28 16.83-2.60L16.83-2.60L16.83-2.60Q17.05-3.03 17.15-3.58L17.15-3.58L18.93-12.75L23.85-13.25L22-3.50L22-3.50Q21.93-3.13 21.93-2.73L21.93-2.73L21.93-2.73Q21.93-2.33 22.15-1.89L22.15-1.89L22.15-1.89Q22.38-1.45 23.10-1.35L23.10-1.35L23.10-1.35Q22.95-0.75 22.43-0.35L22.43-0.35L22.43-0.35Q21.33 0.50 20.14 0.50L20.14 0.50L20.14 0.50Q18.95 0.50 18.25 0.08L18.25 0.08L18.25 0.08Q17.55-0.35 17.35-1.05ZM32.67-8.78L32.67-8.78L32.67-8.78Q33.02-9.70 33.02-10.50L33.02-10.50L33.02-10.50Q33.02-11.98 31.82-11.98L31.82-11.98L31.82-11.98Q31.20-11.98 30.69-11.41L30.69-11.41L30.69-11.41Q30.17-10.85 30.17-10.15L30.17-10.15L30.17-10.15Q30.17-9.65 30.57-9.25L30.57-9.25L30.57-9.25Q31.15-8.70 32.63-7.80L32.63-7.80L32.63-7.80Q34.10-6.90 34.66-6.16L34.66-6.16L34.66-6.16Q35.23-5.43 35.23-4.41L35.23-4.41L35.23-4.41Q35.23-3.40 34.74-2.48L34.74-2.48L34.74-2.48Q34.25-1.55 33.38-0.90L33.38-0.90L33.38-0.90Q31.50 0.50 28.50 0.50L28.50 0.50L28.50 0.50Q26.88 0.50 25.63-0.35L25.63-0.35L25.63-0.35Q24.38-1.18 24.38-2.15L24.38-2.15L24.38-2.15Q24.38-3.13 25.09-3.70L25.09-3.70L25.09-3.70Q25.80-4.28 26.85-4.28L26.85-4.28L26.85-4.28Q27.90-4.28 28.55-3.88L28.55-3.88L28.55-3.88Q28.22-3.05 28.22-2.50L28.22-2.50L28.22-2.50Q28.22-0.85 29.63-0.85L29.63-0.85L29.63-0.85Q30.22-0.85 30.63-1.23L30.63-1.23L30.63-1.23Q31.02-1.60 31.02-2.25L31.02-2.25L31.02-2.25Q31.02-3.53 28.88-4.88L28.88-4.88L28.88-4.88Q27.13-6.03 26.72-6.48L26.72-6.48L26.72-6.48Q26.05-7.28 26.05-8.28L26.05-8.28L26.05-8.28Q26.05-9.28 26.52-10.23L26.52-10.23L26.52-10.23Q27-11.18 27.88-11.85L27.88-11.85L27.88-11.85Q29.70-13.25 32.88-13.25L32.88-13.25L32.88-13.25Q34.50-13.25 35.46-12.60L35.46-12.60L35.46-12.60Q36.42-11.95 36.42-10.85L36.42-10.85L36.42-10.85Q36.42-9.75 35.76-9.13L35.76-9.13L35.76-9.13Q35.10-8.50 33.90-8.50L33.90-8.50L33.90-8.50Q33.08-8.50 32.67-8.78ZM37.75-2.50L37.75-2.50L37.75-2.50Q37.75-3.18 38.10-4.88L38.10-4.88L39.42-11.63L37.95-11.63L38.05-12.38L38.05-12.38Q41.05-13.28 43.95-15.48L43.95-15.48L45.15-15.48L44.55-12.75L46.50-12.75L46.27-11.63L44.35-11.63L43.07-4.88L43.07-4.88Q42.75-3.33 42.75-2.80L42.75-2.80L42.75-2.80Q42.75-1.60 43.80-1.35L43.80-1.35L43.80-1.35Q43.55-0.50 42.65 0L42.65 0L42.65 0Q41.75 0.50 40.47 0.50L40.47 0.50L40.47 0.50Q39.20 0.50 38.47-0.30L38.47-0.30L38.47-0.30Q37.75-1.10 37.75-2.50ZM61.97-3.85L61.97-3.85L61.97-3.85Q62.45-3.25 62.45-2.09L62.45-2.09L62.45-2.09Q62.45-0.93 61.56-0.21L61.56-0.21L61.56-0.21Q60.67 0.50 59.12 0.50L59.12 0.50L59.12 0.50Q58.22 0.50 56.82 0.30L56.82 0.30L56.82 0.30Q54.07-0.13 53.29-0.13L53.29-0.13L53.29-0.13Q52.50-0.13 52.17-0.09L52.17-0.09L52.17-0.09Q51.85-0.05 51.32 0L51.32 0L54.35-16.50L59.82-16.50L57.32-2.75L57.32-2.75Q57.65-2.70 57.95-2.70L57.95-2.70L58.57-2.70L58.57-2.70Q60.67-2.70 61.97-3.85ZM69.57 0.50L69.57 0.50L69.57 0.50Q64.07 0.50 64.07-4.67L64.07-4.67L64.07-4.67Q64.07-8.35 66.10-10.73L66.10-10.73L66.10-10.73Q68.25-13.25 71.97-13.25L71.97-13.25L71.97-13.25Q74.67-13.25 76.05-12L76.05-12L76.05-12Q77.42-10.75 77.42-8.13L77.42-8.13L77.42-8.13Q77.42-4.13 75.27-1.80L75.27-1.80L75.27-1.80Q73.17 0.50 69.57 0.50ZM70.22-10.38L70.22-10.38L70.22-10.38Q69.92-9.70 69.69-8.69L69.69-8.69L69.69-8.69Q69.45-7.68 69.15-6.08L69.15-6.08L69.15-6.08Q68.85-4.48 68.85-2.50L68.85-2.50L68.85-2.50Q68.85-1.85 69.06-1.43L69.06-1.43L69.06-1.43Q69.27-1 69.85-1L69.85-1L69.85-1Q70.42-1 70.79-1.28L70.79-1.28L70.79-1.28Q71.15-1.55 71.42-2.20L71.42-2.20L71.42-2.20Q71.92-3.35 72.32-5.49L72.32-5.49L72.32-5.49Q72.72-7.63 72.76-8.55L72.76-8.55L72.76-8.55Q72.80-9.47 72.80-10.16L72.80-10.16L72.80-10.16Q72.80-10.85 72.60-11.30L72.60-11.30L72.60-11.30Q72.40-11.75 71.84-11.75L71.84-11.75L71.84-11.75Q71.27-11.75 70.90-11.40L70.90-11.40L70.90-11.40Q70.52-11.05 70.22-10.38ZM79.99-0.75L79.99-0.75L79.99-0.75Q79.40-1.40 79.14-2.43L79.14-2.43L79.14-2.43Q78.88-3.45 78.88-5.13L78.88-5.13L78.88-5.13Q78.88-6.80 79.45-8.33L79.45-8.33L79.45-8.33Q80.02-9.85 81.07-10.95L81.07-10.95L81.07-10.95Q83.22-13.25 86.77-13.25L86.77-13.25L86.77-13.25Q88.05-13.25 88.97-12.83L88.97-12.83L93.25-13.25L91.40-3.50L91.40-3.50Q91.32-3.20 91.32-2.65L91.32-2.65L91.32-2.65Q91.32-2.10 91.66-1.75L91.66-1.75L91.66-1.75Q92-1.40 92.50-1.35L92.50-1.35L92.50-1.35Q92.25-0.50 91.34 0L91.34 0L91.34 0Q90.42 0.50 89.40 0.50L89.40 0.50L89.40 0.50Q88.38 0.50 87.69 0.11L87.69 0.11L87.69 0.11Q87-0.28 86.80-0.93L86.80-0.93L86.80-0.93Q86.40-0.30 85.55 0.10L85.55 0.10L85.55 0.10Q84.70 0.50 83.56 0.50L83.56 0.50L83.56 0.50Q82.42 0.50 81.50 0.20L81.50 0.20L81.50 0.20Q80.57-0.10 79.99-0.75ZM85.26-10.90L85.26-10.90L85.26-10.90Q84.97-10.45 84.72-9.69L84.72-9.69L84.72-9.69Q84.47-8.93 84.06-6.89L84.06-6.89L84.06-6.89Q83.65-4.85 83.65-3.40L83.65-3.40L83.65-3.40Q83.65-1.95 83.88-1.53L83.88-1.53L83.88-1.53Q84.10-1.10 84.50-1.10L84.50-1.10L84.50-1.10Q85.30-1.10 85.89-1.86L85.89-1.86L85.89-1.86Q86.47-2.63 86.70-3.98L86.70-3.98L88.02-11.30L88.02-11.30Q87.50-11.75 86.89-11.75L86.89-11.75L86.89-11.75Q86.27-11.75 85.91-11.55L85.91-11.55L85.91-11.55Q85.55-11.35 85.26-10.90ZM103.67-12.33L103.67-12.33L103.67-12.33Q104.50-13.25 105.92-13.25L105.92-13.25L105.92-13.25Q106.80-13.25 107.47-12.78L107.47-12.78L107.47-12.78Q108.15-12.30 108.15-11.41L108.15-11.41L108.15-11.41Q108.15-10.53 107.88-9.58L107.88-9.58L107.88-9.58Q107.60-8.63 107.17-7.65L107.17-7.65L107.17-7.65Q106.33-5.75 105.15-4.17L105.15-4.17L105.15-4.17Q103.50-1.90 101.91-0.70L101.91-0.70L101.91-0.70Q100.33 0.50 98.60 0.50L98.60 0.50L98.60 0.50Q97.20 0.50 96.35 0.18L96.35 0.18L96.35 0.18Q96.20-5.08 96.01-6.95L96.01-6.95L96.01-6.95Q95.83-8.83 95.67-9.85L95.67-9.85L95.67-9.85Q95.42-11.85 94.67-12.33L94.67-12.33L94.67-12.33Q95.25-12.83 95.81-13.04L95.81-13.04L95.81-13.04Q96.38-13.25 97.54-13.25L97.54-13.25L97.54-13.25Q98.70-13.25 99.52-12.34L99.52-12.34L99.52-12.34Q100.35-11.43 100.51-9.81L100.51-9.81L100.51-9.81Q100.67-8.20 100.67-6.25L100.67-6.25L100.67-6.25Q100.67-4.30 100.52-1.95L100.52-1.95L100.52-1.95Q101.30-2.50 102.13-4.17L102.13-4.17L102.13-4.17Q103.25-6.50 103.65-9.30L103.65-9.30L103.65-9.30Q103.78-10.15 103.78-11.05L103.78-11.05L103.78-11.05Q103.78-11.95 103.67-12.33ZM118.95-4.23L118.95-4.23L118.95-4.23Q119.58-3.80 119.58-2.86L119.58-2.86L119.58-2.86Q119.58-1.93 119.10-1.33L119.10-1.33L119.10-1.33Q118.63-0.73 117.85-0.33L117.85-0.33L117.85-0.33Q116.25 0.50 114.53 0.50L114.53 0.50L114.53 0.50Q112.80 0.50 111.79 0.13L111.79 0.13L111.79 0.13Q110.78-0.25 110.10-0.95L110.10-0.95L110.10-0.95Q108.78-2.27 108.78-4.70L108.78-4.70L108.78-4.70Q108.78-8.47 110.83-10.78L110.83-10.78L110.83-10.78Q113.03-13.25 116.85-13.25L116.85-13.25L116.85-13.25Q119.23-13.25 120.40-12.25L120.40-12.25L120.40-12.25Q121.28-11.50 121.28-10.28L121.28-10.28L121.28-10.28Q121.28-5.88 113.68-5.88L113.68-5.88L113.68-5.88Q113.58-5.23 113.58-4.67L113.58-4.67L113.58-4.67Q113.58-3.53 114.09-3.09L114.09-3.09L114.09-3.09Q114.60-2.65 115.55-2.65L115.55-2.65L115.55-2.65Q116.50-2.65 117.51-3.09L117.51-3.09L117.51-3.09Q118.53-3.53 118.95-4.23ZM113.85-6.95L113.85-6.95L113.85-6.95Q115.63-6.95 116.65-8.05L116.65-8.05L116.65-8.05Q117.68-9.10 117.68-10.78L117.68-10.78L117.68-10.78Q117.68-11.35 117.46-11.66L117.46-11.66L117.46-11.66Q117.25-11.98 116.83-11.98L116.83-11.98L116.83-11.98Q116.40-11.98 116.04-11.81L116.04-11.81L116.04-11.81Q115.68-11.65 115.30-11.10L115.30-11.10L115.30-11.10Q114.38-9.85 113.85-6.95ZM129.60-8.78L129.60-8.78L129.60-8.78Q129.95-9.70 129.95-10.50L129.95-10.50L129.95-10.50Q129.95-11.98 128.75-11.98L128.75-11.98L128.75-11.98Q128.13-11.98 127.61-11.41L127.61-11.41L127.61-11.41Q127.10-10.85 127.10-10.15L127.10-10.15L127.10-10.15Q127.10-9.65 127.50-9.25L127.50-9.25L127.50-9.25Q128.07-8.70 129.55-7.80L129.55-7.80L129.55-7.80Q131.03-6.90 131.59-6.16L131.59-6.16L131.59-6.16Q132.15-5.43 132.15-4.41L132.15-4.41L132.15-4.41Q132.15-3.40 131.66-2.48L131.66-2.48L131.66-2.48Q131.18-1.55 130.30-0.90L130.30-0.90L130.30-0.90Q128.43 0.50 125.42 0.50L125.42 0.50L125.42 0.50Q123.80 0.50 122.55-0.35L122.55-0.35L122.55-0.35Q121.30-1.18 121.30-2.15L121.30-2.15L121.30-2.15Q121.30-3.13 122.01-3.70L122.01-3.70L122.01-3.70Q122.73-4.28 123.78-4.28L123.78-4.28L123.78-4.28Q124.83-4.28 125.48-3.88L125.48-3.88L125.48-3.88Q125.15-3.05 125.15-2.50L125.15-2.50L125.15-2.50Q125.15-0.85 126.55-0.85L126.55-0.85L126.55-0.85Q127.15-0.85 127.55-1.23L127.55-1.23L127.55-1.23Q127.95-1.60 127.95-2.25L127.95-2.25L127.95-2.25Q127.95-3.53 125.80-4.88L125.80-4.88L125.80-4.88Q124.05-6.03 123.65-6.48L123.65-6.48L123.65-6.48Q122.98-7.28 122.98-8.28L122.98-8.28L122.98-8.28Q122.98-9.28 123.45-10.23L123.45-10.23L123.45-10.23Q123.92-11.18 124.80-11.85L124.80-11.85L124.80-11.85Q126.63-13.25 129.80-13.25L129.80-13.25L129.80-13.25Q131.43-13.25 132.39-12.60L132.39-12.60L132.39-12.60Q133.35-11.95 133.35-10.85L133.35-10.85L133.35-10.85Q133.35-9.75 132.69-9.13L132.69-9.13L132.69-9.13Q132.03-8.50 130.82-8.50L130.82-8.50L130.82-8.50Q130-8.50 129.60-8.78ZM139.18-0.13L139.18-0.13L142.32-16.50L142.32-16.50Q145.28-16.75 147.18-16.75L147.18-16.75L147.18-16.75Q149.07-16.75 150.30-16.59L150.30-16.59L150.30-16.59Q151.53-16.43 152.35-16L152.35-16L152.35-16Q154-15.20 154-13L154-13L154-13Q154-11.73 152.90-10.65L152.90-10.65L152.90-10.65Q151.88-9.68 150.75-9.45L150.75-9.45L150.75-9.45Q151.95-9.25 152.80-8.35L152.80-8.35L152.80-8.35Q153.70-7.40 153.70-5.93L153.70-5.93L153.70-5.93Q153.70-3.08 151.57-1.41L151.57-1.41L151.57-1.41Q149.45 0.25 145.28 0.25L145.28 0.25L145.28 0.25Q142.40 0.25 139.18-0.13ZM145.97-8.05L144.72-1.58L144.72-1.58Q144.95-1.55 145-1.55L145-1.55L145.22-1.55L145.22-1.55Q147.28-1.55 148.15-2.90L148.15-2.90L148.15-2.90Q148.80-3.95 148.80-5.88L148.80-5.88L148.80-5.88Q148.80-6.90 148.14-7.45L148.14-7.45L148.14-7.45Q147.47-8 145.97-8.05L145.97-8.05ZM149.78-12.98L149.78-12.98L149.78-12.98Q149.78-15.05 147.78-15.05L147.78-15.05L147.55-15.05L147.55-15.05Q147.45-15.05 147.30-15.03L147.30-15.03L146.30-9.75L146.55-9.75L146.55-9.75Q149.78-9.83 149.78-12.98ZM163.30-2.83L163.30-2.83L163.30-2.83Q162-1.48 159.63-1.48L159.63-1.48L159.63-1.48Q156.65-1.48 156.03-3.65L156.03-3.65L156.03-3.65Q155.83-4.30 155.83-5.03L155.83-5.03L155.83-5.03Q155.83-5.75 155.98-6.50L155.98-6.50L157.15-12.75L162.23-13.25L160.85-5.98L160.85-5.98Q160.80-5.65 160.73-5.30L160.73-5.30L160.73-5.30Q160.65-4.95 160.65-4.59L160.65-4.59L160.65-4.59Q160.65-4.23 160.78-3.99L160.78-3.99L160.78-3.99Q160.90-3.75 161.08-3.60L161.08-3.60L161.08-3.60Q161.38-3.40 161.91-3.40L161.91-3.40L161.91-3.40Q162.45-3.40 162.91-4.05L162.91-4.05L162.91-4.05Q163.38-4.70 163.60-5.83L163.60-5.83L164.98-12.75L169.90-13.25L168.03-3.43L168.03-3.43Q167.10 1.38 165.20 3.28L165.20 3.28L165.20 3.28Q164.23 4.25 162.96 4.64L162.96 4.64L162.96 4.64Q161.70 5.03 160.08 5.03L160.08 5.03L160.08 5.03Q157.45 5.03 155.95 4.20L155.95 4.20L155.95 4.20Q154.45 3.38 154.45 2L154.45 2L154.45 2Q154.45 0.98 155.23 0.39L155.23 0.39L155.23 0.39Q156-0.20 157.20-0.20L157.20-0.20L157.20-0.20Q158.25-0.20 159.05 0.25L159.05 0.25L159.05 0.25Q159.53 0.53 159.75 0.88L159.75 0.88L159.75 0.88Q159.18 1.38 159.18 2.20L159.18 2.20L159.18 2.20Q159.18 3.30 160.18 3.30L160.18 3.30L160.18 3.30Q161.83 3.30 162.78-0.50L162.78-0.50L162.78-0.50Q163.05-1.63 163.30-2.83ZM181.05 0L175.72 0L178.58-15.20L178.85-16.50L184.20-16.50L181.05 0ZM191.20-1.48L191.20-1.48L191.20-1.48Q190.53 0.50 187.93 0.50L187.93 0.50L187.93 0.50Q186 0.50 184.68-1.80L184.68-1.80L184.68-1.80Q183.33-4.10 183.08-7.85L183.08-7.85L183.08-7.85Q185.83-12.88 187.72-14.95L187.72-14.95L187.72-14.95Q189.55-16.93 191.45-16.93L191.45-16.93L191.45-16.93Q192.47-16.93 193.21-16.38L193.21-16.38L193.21-16.38Q193.95-15.83 194.13-14.95L194.13-14.95L194.13-14.95Q193.28-14.60 192.88-14.33L192.88-14.33L192.88-14.33Q191.88-13.58 190.53-11.90L190.53-11.90L188.25-9.18L188.25-9.18Q187.70-8.53 187.47-8.22L187.47-8.22L187.47-8.22Q187.85-6.13 188.97-4.05L188.97-4.05L188.97-4.05Q190.05-2.08 191.20-1.48ZM199.33-1.38L199.33-1.38L199.33-1.38Q198.55 0.50 196.08 0.50L196.08 0.50L196.08 0.50Q194.80 0.50 194-0.38L194-0.38L194-0.38Q193.33-1.15 193.33-1.93L193.33-1.93L193.33-1.93Q193.33-3.95 194.25-7.90L194.25-7.90L195.18-12.75L200.25-13.25L198.72-5.35L198.72-5.35Q198.30-3.50 198.30-2.85L198.30-2.85L198.30-2.85Q198.30-1.43 199.33-1.38ZM195.63-16.23L195.63-16.23L195.63-16.23Q195.63-17.20 196.44-17.73L196.44-17.73L196.44-17.73Q197.25-18.25 198.43-18.25L198.43-18.25L198.43-18.25Q199.60-18.25 200.31-17.73L200.31-17.73L200.31-17.73Q201.03-17.20 201.03-16.23L201.03-16.23L201.03-16.23Q201.03-15.25 200.24-14.75L200.24-14.75L200.24-14.75Q199.45-14.25 198.28-14.25L198.28-14.25L198.28-14.25Q197.10-14.25 196.36-14.75L196.36-14.75L196.36-14.75Q195.63-15.25 195.63-16.23ZM209.28-7.03L209.28-7.03L209.28-7.03Q210.18-8.63 210.18-10.25L210.18-10.25L210.18-10.25Q210.18-11.33 209.40-11.33L209.40-11.33L209.40-11.33Q208.80-11.33 208.18-10.30L208.18-10.30L208.18-10.30Q207.53-9.28 207.33-7.95L207.33-7.95L206.03 0L200.85 0.50L203.40-12.75L207.53-13.25L207.08-10.73L207.08-10.73Q208.30-13.25 211.05-13.25L211.05-13.25L211.05-13.25Q212.50-13.25 213.29-12.50L213.29-12.50L213.29-12.50Q214.08-11.75 214.08-10.21L214.08-10.21L214.08-10.21Q214.08-8.68 213.06-7.70L213.06-7.70L213.06-7.70Q212.05-6.73 210.33-6.73L210.33-6.73L210.33-6.73Q209.58-6.73 209.28-7.03ZM214.88-2.50L214.88-2.50L214.88-2.50Q214.88-3.18 215.23-4.88L215.23-4.88L216.55-11.63L215.08-11.63L215.18-12.38L215.18-12.38Q218.18-13.28 221.08-15.48L221.08-15.48L222.28-15.48L221.68-12.75L223.63-12.75L223.40-11.63L221.48-11.63L220.20-4.88L220.20-4.88Q219.88-3.33 219.88-2.80L219.88-2.80L219.88-2.80Q219.88-1.60 220.93-1.35L220.93-1.35L220.93-1.35Q220.68-0.50 219.78 0L219.78 0L219.78 0Q218.88 0.50 217.60 0.50L217.60 0.50L217.60 0.50Q216.33 0.50 215.60-0.30L215.60-0.30L215.60-0.30Q214.88-1.10 214.88-2.50ZM230.98-8.78L230.98-8.78L230.98-8.78Q231.33-9.70 231.33-10.50L231.33-10.50L231.33-10.50Q231.33-11.98 230.13-11.98L230.13-11.98L230.13-11.98Q229.50-11.98 228.99-11.41L228.99-11.41L228.99-11.41Q228.48-10.85 228.48-10.15L228.48-10.15L228.48-10.15Q228.48-9.65 228.88-9.25L228.88-9.25L228.88-9.25Q229.45-8.70 230.93-7.80L230.93-7.80L230.93-7.80Q232.40-6.90 232.96-6.16L232.96-6.16L232.96-6.16Q233.53-5.43 233.53-4.41L233.53-4.41L233.53-4.41Q233.53-3.40 233.04-2.48L233.04-2.48L233.04-2.48Q232.55-1.55 231.68-0.90L231.68-0.90L231.68-0.90Q229.80 0.50 226.80 0.50L226.80 0.50L226.80 0.50Q225.18 0.50 223.93-0.35L223.93-0.35L223.93-0.35Q222.68-1.18 222.68-2.15L222.68-2.15L222.68-2.15Q222.68-3.13 223.39-3.70L223.39-3.70L223.39-3.70Q224.10-4.28 225.15-4.28L225.15-4.28L225.15-4.28Q226.20-4.28 226.85-3.88L226.85-3.88L226.85-3.88Q226.53-3.05 226.53-2.50L226.53-2.50L226.53-2.50Q226.53-0.85 227.93-0.85L227.93-0.85L227.93-0.85Q228.53-0.85 228.93-1.23L228.93-1.23L228.93-1.23Q229.33-1.60 229.33-2.25L229.33-2.25L229.33-2.25Q229.33-3.53 227.18-4.88L227.18-4.88L227.18-4.88Q225.43-6.03 225.03-6.48L225.03-6.48L225.03-6.48Q224.35-7.28 224.35-8.28L224.35-8.28L224.35-8.28Q224.35-9.28 224.83-10.23L224.83-10.23L224.83-10.23Q225.30-11.18 226.18-11.85L226.18-11.85L226.18-11.85Q228.00-13.25 231.18-13.25L231.18-13.25L231.18-13.25Q232.80-13.25 233.76-12.60L233.76-12.60L233.76-12.60Q234.73-11.95 234.73-10.85L234.73-10.85L234.73-10.85Q234.73-9.75 234.06-9.13L234.06-9.13L234.06-9.13Q233.40-8.50 232.20-8.50L232.20-8.50L232.20-8.50Q231.38-8.50 230.98-8.78ZM241.65-1.38L241.65-1.38L241.65-1.38Q240.88 0.50 238.40 0.50L238.40 0.50L238.40 0.50Q237.13 0.50 236.33-0.38L236.33-0.38L236.33-0.38Q235.65-1.15 235.65-1.93L235.65-1.93L235.65-1.93Q235.65-3.95 236.58-7.90L236.58-7.90L237.50-12.75L242.58-13.25L241.05-5.35L241.05-5.35Q240.63-3.50 240.63-2.85L240.63-2.85L240.63-2.85Q240.63-1.43 241.65-1.38ZM237.95-16.23L237.95-16.23L237.95-16.23Q237.95-17.20 238.76-17.73L238.76-17.73L238.76-17.73Q239.58-18.25 240.75-18.25L240.75-18.25L240.75-18.25Q241.93-18.25 242.64-17.73L242.64-17.73L242.64-17.73Q243.35-17.20 243.35-16.23L243.35-16.23L243.35-16.23Q243.35-15.25 242.56-14.75L242.56-14.75L242.56-14.75Q241.78-14.25 240.60-14.25L240.60-14.25L240.60-14.25Q239.43-14.25 238.69-14.75L238.69-14.75L238.69-14.75Q237.95-15.25 237.95-16.23Z" fill="#ffd5af"></path></g></g><style>text {
  font-size: 64px;
  font-family: Arial Black;
  dominant-baseline: central;
  text-anchor: middle;
}</style></svg>