<svg width="1069.4599853515624px" height="146.039990234375px" xmlns="http://www.w3.org/2000/svg" viewBox="-284.7299926757812 1.9800048828124943 1069.4599853515624 146.039990234375" style="background:#596886" preserveAspectRatio="xMidYMid"><defs><filter id="editing-hover" x="-100%" y="-100%" width="300%" height="300%"><feFlood flood-color="#052b4a" result="flood"></feFlood><feComposite operator="in" in2="SourceAlpha" in="flood" result="shadow"></feComposite><feOffset dx="-4" dy="-4" in="SourceGraphic" result="offset-1"></feOffset><feOffset dx="4" dy="4" in="shadow" result="offset-2"></feOffset><feMerge><feMergeNode in="offset-2"></feMergeNode><feMergeNode in="offset-1"></feMergeNode></feMerge></filter></defs><g filter="url(#editing-hover)"><g transform="translate(-128.9620656967163, 110.84500122070312)"><path d="M-8.39 10.63L-8.39 10.63L-8.39 10.63Q-4.47 10.16-2.00 5.08L-2.00 5.08L-2.00 5.08Q0.54-0.08 2.85-11.94L2.85-11.94L10.32-50.82L27.03-50.82L19.56-11.94L19.56-11.94Q16.71 3.16 12.01 9.09L12.01 9.09L12.01 9.09Q9.55 12.17 6.43 13.40L6.43 13.40L6.43 13.40Q3.31 14.63-0.08 14.63L-0.08 14.63L-0.08 14.63Q-3.46 14.63-5.66 13.40L-5.66 13.40L-5.66 13.40Q-7.85 12.17-8.39 10.63ZM53.44-3.23L53.44-3.23L53.44-3.23Q49.74 1.54 40.58 1.54L40.58 1.54L40.58 1.54Q35.80 1.54 32.34-1.35L32.34-1.35L32.34-1.35Q28.88-4.24 28.88-8.39L28.88-8.39L28.88-8.39Q28.88-10.70 29.11-11.86L29.11-11.86L34.27-39.27L49.90-40.81L44.27-11.09L44.27-11.09Q43.97-9.39 43.97-8.39L43.97-8.39L43.97-8.39Q43.97-3.93 46.66-3.93L46.66-3.93L46.66-3.93Q49.66-3.93 51.82-8.01L51.82-8.01L51.82-8.01Q52.51-9.32 52.82-11.01L52.82-11.01L58.29-39.27L73.46-40.81L67.76-10.78L67.76-10.78Q67.53-9.63 67.53-8.39L67.53-8.39L67.53-8.39Q67.53-7.16 68.22-5.81L68.22-5.81L68.22-5.81Q68.91-4.47 71.15-4.16L71.15-4.16L71.15-4.16Q70.69-2.31 69.07-1.08L69.07-1.08L69.07-1.08Q65.68 1.54 62.02 1.54L62.02 1.54L62.02 1.54Q58.37 1.54 56.21 0.23L56.21 0.23L56.21 0.23Q54.05-1.08 53.44-3.23ZM100.64-27.03L100.64-27.03L100.64-27.03Q101.72-29.88 101.72-32.34L101.72-32.34L101.72-32.34Q101.72-36.88 98.02-36.88L98.02-36.88L98.02-36.88Q96.10-36.88 94.52-35.15L94.52-35.15L94.52-35.15Q92.94-33.42 92.94-31.26L92.94-31.26L92.94-31.26Q92.94-29.72 94.17-28.49L94.17-28.49L94.17-28.49Q95.94-26.80 100.48-24.02L100.48-24.02L100.48-24.02Q105.03-21.25 106.76-18.98L106.76-18.98L106.76-18.98Q108.49-16.71 108.49-13.59L108.49-13.59L108.49-13.59Q108.49-10.47 106.99-7.62L106.99-7.62L106.99-7.62Q105.49-4.77 102.79-2.77L102.79-2.77L102.79-2.77Q97.02 1.54 87.78 1.54L87.78 1.54L87.78 1.54Q82.77 1.54 78.92-1.08L78.92-1.08L78.92-1.08Q75.07-3.62 75.07-6.62L75.07-6.62L75.07-6.62Q75.07-9.63 77.27-11.40L77.27-11.40L77.27-11.40Q79.46-13.17 82.70-13.17L82.70-13.17L82.70-13.17Q85.93-13.17 87.93-11.94L87.93-11.94L87.93-11.94Q86.93-9.39 86.93-7.70L86.93-7.70L86.93-7.70Q86.93-2.62 91.24-2.62L91.24-2.62L91.24-2.62Q93.09-2.62 94.32-3.77L94.32-3.77L94.32-3.77Q95.56-4.93 95.56-6.93L95.56-6.93L95.56-6.93Q95.56-10.86 88.93-15.02L88.93-15.02L88.93-15.02Q83.54-18.56 82.31-19.94L82.31-19.94L82.31-19.94Q80.23-22.41 80.23-25.49L80.23-25.49L80.23-25.49Q80.23-28.57 81.70-31.49L81.70-31.49L81.70-31.49Q83.16-34.42 85.85-36.50L85.85-36.50L85.85-36.50Q91.48-40.81 101.25-40.81L101.25-40.81L101.25-40.81Q106.26-40.81 109.22-38.81L109.22-38.81L109.22-38.81Q112.19-36.81 112.19-33.42L112.19-33.42L112.19-33.42Q112.19-30.03 110.15-28.11L110.15-28.11L110.15-28.11Q108.11-26.18 104.41-26.18L104.41-26.18L104.41-26.18Q101.87-26.18 100.64-27.03ZM116.27-7.70L116.27-7.70L116.27-7.70Q116.27-9.78 117.35-15.02L117.35-15.02L121.43-35.80L116.89-35.80L117.19-38.12L117.19-38.12Q126.43-40.89 135.37-47.66L135.37-47.66L139.06-47.66L137.21-39.27L143.22-39.27L142.53-35.80L136.60-35.80L132.67-15.02L132.67-15.02Q131.67-10.24 131.67-8.62L131.67-8.62L131.67-8.62Q131.67-4.93 134.90-4.16L134.90-4.16L134.90-4.16Q134.13-1.54 131.36 0L131.36 0L131.36 0Q128.59 1.54 124.66 1.54L124.66 1.54L124.66 1.54Q120.74 1.54 118.50-0.92L118.50-0.92L118.50-0.92Q116.27-3.39 116.27-7.70ZM190.88-11.86L190.88-11.86L190.88-11.86Q192.35-10.01 192.35-6.43L192.35-6.43L192.35-6.43Q192.35-2.85 189.61-0.65L189.61-0.65L189.61-0.65Q186.88 1.54 182.10 1.54L182.10 1.54L182.10 1.54Q179.33 1.54 175.02 0.92L175.02 0.92L175.02 0.92Q166.55-0.39 164.13-0.39L164.13-0.39L164.13-0.39Q161.70-0.39 160.70-0.27L160.70-0.27L160.70-0.27Q159.70-0.15 158.08 0L158.08 0L167.40-50.82L184.26-50.82L176.56-8.47L176.56-8.47Q177.56-8.32 178.49-8.32L178.49-8.32L180.41-8.32L180.41-8.32Q186.88-8.32 190.88-11.86ZM214.29 1.54L214.29 1.54L214.29 1.54Q197.35 1.54 197.35-14.40L197.35-14.40L197.35-14.40Q197.35-25.72 203.59-33.03L203.59-33.03L203.59-33.03Q210.21-40.81 221.68-40.81L221.68-40.81L221.68-40.81Q230.00-40.81 234.23-36.96L234.23-36.96L234.23-36.96Q238.47-33.11 238.47-25.02L238.47-25.02L238.47-25.02Q238.47-12.71 231.85-5.54L231.85-5.54L231.85-5.54Q225.38 1.54 214.29 1.54ZM216.29-31.95L216.29-31.95L216.29-31.95Q215.37-29.88 214.64-26.76L214.64-26.76L214.64-26.76Q213.91-23.64 212.98-18.71L212.98-18.71L212.98-18.71Q212.06-13.78 212.06-7.70L212.06-7.70L212.06-7.70Q212.06-5.70 212.71-4.39L212.71-4.39L212.71-4.39Q213.37-3.08 215.14-3.08L215.14-3.08L215.14-3.08Q216.91-3.08 218.03-3.93L218.03-3.93L218.03-3.93Q219.14-4.77 219.99-6.78L219.99-6.78L219.99-6.78Q221.53-10.32 222.76-16.90L222.76-16.90L222.76-16.90Q223.99-23.48 224.11-26.33L224.11-26.33L224.11-26.33Q224.22-29.18 224.22-31.30L224.22-31.30L224.22-31.30Q224.22-33.42 223.61-34.80L223.61-34.80L223.61-34.80Q222.99-36.19 221.26-36.19L221.26-36.19L221.26-36.19Q219.53-36.19 218.37-35.11L218.37-35.11L218.37-35.11Q217.22-34.03 216.29-31.95ZM246.36-2.31L246.36-2.31L246.36-2.31Q244.55-4.31 243.74-7.47L243.74-7.47L243.74-7.47Q242.93-10.63 242.93-15.79L242.93-15.79L242.93-15.79Q242.93-20.94 244.71-25.64L244.71-25.64L244.71-25.64Q246.48-30.34 249.71-33.73L249.71-33.73L249.71-33.73Q256.33-40.81 267.27-40.81L267.27-40.81L267.27-40.81Q271.19-40.81 274.04-39.50L274.04-39.50L287.21-40.81L281.51-10.78L281.51-10.78Q281.28-9.86 281.28-8.16L281.28-8.16L281.28-8.16Q281.28-6.47 282.32-5.39L282.32-5.39L282.32-5.39Q283.36-4.31 284.90-4.16L284.90-4.16L284.90-4.16Q284.13-1.54 281.32 0L281.32 0L281.32 0Q278.51 1.54 275.35 1.54L275.35 1.54L275.35 1.54Q272.19 1.54 270.08 0.35L270.08 0.35L270.08 0.35Q267.96-0.85 267.34-2.85L267.34-2.85L267.34-2.85Q266.11-0.92 263.49 0.31L263.49 0.31L263.49 0.31Q260.88 1.54 257.37 1.54L257.37 1.54L257.37 1.54Q253.87 1.54 251.02 0.62L251.02 0.62L251.02 0.62Q248.17-0.31 246.36-2.31ZM262.61-33.57L262.61-33.57L262.61-33.57Q261.72-32.19 260.95-29.84L260.95-29.84L260.95-29.84Q260.18-27.49 258.91-21.21L258.91-21.21L258.91-21.21Q257.64-14.94 257.64-10.47L257.64-10.47L257.64-10.47Q257.64-6.01 258.33-4.70L258.33-4.70L258.33-4.70Q259.03-3.39 260.26-3.39L260.26-3.39L260.26-3.39Q262.72-3.39 264.53-5.74L264.53-5.74L264.53-5.74Q266.34-8.08 267.04-12.24L267.04-12.24L271.12-34.80L271.12-34.80Q269.50-36.19 267.61-36.19L267.61-36.19L267.61-36.19Q265.73-36.19 264.61-35.57L264.61-35.57L264.61-35.57Q263.49-34.96 262.61-33.57ZM319.32-37.96L319.32-37.96L319.32-37.96Q321.86-40.81 326.25-40.81L326.25-40.81L326.25-40.81Q328.94-40.81 331.02-39.35L331.02-39.35L331.02-39.35Q333.10-37.88 333.10-35.15L333.10-35.15L333.10-35.15Q333.10-32.42 332.25-29.49L332.25-29.49L332.25-29.49Q331.41-26.57 330.10-23.56L330.10-23.56L330.10-23.56Q327.48-17.71 323.86-12.86L323.86-12.86L323.86-12.86Q318.78-5.85 313.89-2.16L313.89-2.16L313.89-2.16Q309.00 1.54 303.69 1.54L303.69 1.54L303.69 1.54Q299.38 1.54 296.76 0.54L296.76 0.54L296.76 0.54Q296.30-15.63 295.72-21.41L295.72-21.41L295.72-21.41Q295.14-27.18 294.68-30.34L294.68-30.34L294.68-30.34Q293.91-36.50 291.60-37.96L291.60-37.96L291.60-37.96Q293.37-39.50 295.10-40.16L295.10-40.16L295.10-40.16Q296.83-40.81 300.42-40.81L300.42-40.81L300.42-40.81Q304.00-40.81 306.54-38.00L306.54-38.00L306.54-38.00Q309.08-35.19 309.58-30.22L309.58-30.22L309.58-30.22Q310.08-25.26 310.08-19.25L310.08-19.25L310.08-19.25Q310.08-13.24 309.62-6.01L309.62-6.01L309.62-6.01Q312.00-7.70 314.54-12.86L314.54-12.86L314.54-12.86Q318.01-20.02 319.24-28.64L319.24-28.64L319.24-28.64Q319.63-31.26 319.63-34.03L319.63-34.03L319.63-34.03Q319.63-36.81 319.32-37.96ZM366.37-13.01L366.37-13.01L366.37-13.01Q368.29-11.70 368.29-8.82L368.29-8.82L368.29-8.82Q368.29-5.93 366.83-4.08L366.83-4.08L366.83-4.08Q365.36-2.23 362.98-1.00L362.98-1.00L362.98-1.00Q358.05 1.54 352.74 1.54L352.74 1.54L352.74 1.54Q347.42 1.54 344.31 0.39L344.31 0.39L344.31 0.39Q341.19-0.77 339.11-2.93L339.11-2.93L339.11-2.93Q335.03-7.01 335.03-14.48L335.03-14.48L335.03-14.48Q335.03-26.10 341.34-33.19L341.34-33.19L341.34-33.19Q348.12-40.81 359.90-40.81L359.90-40.81L359.90-40.81Q367.21-40.81 370.83-37.73L370.83-37.73L370.83-37.73Q373.53-35.42 373.53-31.65L373.53-31.65L373.53-31.65Q373.53-18.09 350.12-18.09L350.12-18.09L350.12-18.09Q349.81-16.09 349.81-14.40L349.81-14.40L349.81-14.40Q349.81-10.86 351.39-9.51L351.39-9.51L351.39-9.51Q352.97-8.16 355.89-8.16L355.89-8.16L355.89-8.16Q358.82-8.16 361.94-9.51L361.94-9.51L361.94-9.51Q365.06-10.86 366.37-13.01ZM350.66-21.41L350.66-21.41L350.66-21.41Q356.12-21.41 359.28-24.79L359.28-24.79L359.28-24.79Q362.44-28.03 362.44-33.19L362.44-33.19L362.44-33.19Q362.44-34.96 361.78-35.92L361.78-35.92L361.78-35.92Q361.13-36.88 359.82-36.88L359.82-36.88L359.82-36.88Q358.51-36.88 357.40-36.38L357.40-36.38L357.40-36.38Q356.28-35.88 355.12-34.19L355.12-34.19L355.12-34.19Q352.27-30.34 350.66-21.41ZM399.17-27.03L399.17-27.03L399.17-27.03Q400.25-29.88 400.25-32.34L400.25-32.34L400.25-32.34Q400.25-36.88 396.55-36.88L396.55-36.88L396.55-36.88Q394.62-36.88 393.05-35.15L393.05-35.15L393.05-35.15Q391.47-33.42 391.47-31.26L391.47-31.26L391.47-31.26Q391.47-29.72 392.70-28.49L392.70-28.49L392.70-28.49Q394.47-26.80 399.01-24.02L399.01-24.02L399.01-24.02Q403.56-21.25 405.29-18.98L405.29-18.98L405.29-18.98Q407.02-16.71 407.02-13.59L407.02-13.59L407.02-13.59Q407.02-10.47 405.52-7.62L405.52-7.62L405.52-7.62Q404.02-4.77 401.32-2.77L401.32-2.77L401.32-2.77Q395.55 1.54 386.31 1.54L386.31 1.54L386.31 1.54Q381.30 1.54 377.45-1.08L377.45-1.08L377.45-1.08Q373.60-3.62 373.60-6.62L373.60-6.62L373.60-6.62Q373.60-9.63 375.80-11.40L375.80-11.40L375.80-11.40Q377.99-13.17 381.23-13.17L381.23-13.17L381.23-13.17Q384.46-13.17 386.46-11.94L386.46-11.94L386.46-11.94Q385.46-9.39 385.46-7.70L385.46-7.70L385.46-7.70Q385.46-2.62 389.77-2.62L389.77-2.62L389.77-2.62Q391.62-2.62 392.85-3.77L392.85-3.77L392.85-3.77Q394.09-4.93 394.09-6.93L394.09-6.93L394.09-6.93Q394.09-10.86 387.46-15.02L387.46-15.02L387.46-15.02Q382.07-18.56 380.84-19.94L380.84-19.94L380.84-19.94Q378.76-22.41 378.76-25.49L378.76-25.49L378.76-25.49Q378.76-28.57 380.23-31.49L380.23-31.49L380.23-31.49Q381.69-34.42 384.38-36.50L384.38-36.50L384.38-36.50Q390.00-40.81 399.78-40.81L399.78-40.81L399.78-40.81Q404.79-40.81 407.75-38.81L407.75-38.81L407.75-38.81Q410.72-36.81 410.72-33.42L410.72-33.42L410.72-33.42Q410.72-30.03 408.68-28.11L408.68-28.11L408.68-28.11Q406.64-26.18 402.94-26.18L402.94-26.18L402.94-26.18Q400.40-26.18 399.17-27.03ZM428.66-0.39L428.66-0.39L438.36-50.82L438.36-50.82Q447.45-51.59 453.30-51.59L453.30-51.59L453.30-51.59Q459.15-51.59 462.92-51.09L462.92-51.09L462.92-51.09Q466.70-50.59 469.24-49.28L469.24-49.28L469.24-49.28Q474.32-46.82 474.32-40.04L474.32-40.04L474.32-40.04Q474.32-36.11 470.93-32.80L470.93-32.80L470.93-32.80Q467.77-29.80 464.31-29.11L464.31-29.11L464.31-29.11Q468.01-28.49 470.62-25.72L470.62-25.72L470.62-25.72Q473.40-22.79 473.40-18.25L473.40-18.25L473.40-18.25Q473.40-9.47 466.85-4.35L466.85-4.35L466.85-4.35Q460.31 0.77 447.45 0.77L447.45 0.77L447.45 0.77Q438.59 0.77 428.66-0.39ZM449.60-24.79L445.75-4.85L445.75-4.85Q446.45-4.77 446.60-4.77L446.60-4.77L447.29-4.77L447.29-4.77Q453.61-4.77 456.30-8.93L456.30-8.93L456.30-8.93Q458.30-12.17 458.30-18.09L458.30-18.09L458.30-18.09Q458.30-21.25 456.26-22.95L456.26-22.95L456.26-22.95Q454.22-24.64 449.60-24.79L449.60-24.79ZM461.31-39.96L461.31-39.96L461.31-39.96Q461.31-46.35 455.15-46.35L455.15-46.35L454.45-46.35L454.45-46.35Q454.15-46.35 453.68-46.28L453.68-46.28L450.60-30.03L451.37-30.03L451.37-30.03Q461.31-30.26 461.31-39.96ZM502.96-8.70L502.96-8.70L502.96-8.70Q498.96-4.54 491.64-4.54L491.64-4.54L491.64-4.54Q482.48-4.54 480.56-11.24L480.56-11.24L480.56-11.24Q479.94-13.24 479.94-15.48L479.94-15.48L479.94-15.48Q479.94-17.71 480.40-20.02L480.40-20.02L484.02-39.27L499.65-40.81L495.42-18.40L495.42-18.40Q495.26-17.40 495.03-16.32L495.03-16.32L495.03-16.32Q494.80-15.25 494.80-14.13L494.80-14.13L494.80-14.13Q494.80-13.01 495.19-12.28L495.19-12.28L495.19-12.28Q495.57-11.55 496.11-11.09L496.11-11.09L496.11-11.09Q497.03-10.47 498.69-10.47L498.69-10.47L498.69-10.47Q500.35-10.47 501.77-12.47L501.77-12.47L501.77-12.47Q503.19-14.48 503.89-17.94L503.89-17.94L508.12-39.27L523.29-40.81L517.52-10.55L517.52-10.55Q514.67 4.24 508.82 10.09L508.82 10.09L508.82 10.09Q505.81 13.09 501.92 14.28L501.92 14.28L501.92 14.28Q498.04 15.48 493.03 15.48L493.03 15.48L493.03 15.48Q484.95 15.48 480.33 12.94L480.33 12.94L480.33 12.94Q475.71 10.39 475.71 6.16L475.71 6.16L475.71 6.16Q475.71 3.00 478.09 1.19L478.09 1.19L478.09 1.19Q480.48-0.62 484.18-0.62L484.18-0.62L484.18-0.62Q487.41-0.62 489.87 0.77L489.87 0.77L489.87 0.77Q491.34 1.62 492.03 2.69L492.03 2.69L492.03 2.69Q490.26 4.24 490.26 6.78L490.26 6.78L490.26 6.78Q490.26 10.16 493.34 10.16L493.34 10.16L493.34 10.16Q498.42 10.16 501.35-1.54L501.35-1.54L501.35-1.54Q502.19-5.00 502.96-8.70ZM557.63 0L541.23 0L550.01-46.82L550.86-50.82L567.34-50.82L557.63 0ZM588.90-4.54L588.90-4.54L588.90-4.54Q586.82 1.54 578.81 1.54L578.81 1.54L578.81 1.54Q572.88 1.54 568.80-5.54L568.80-5.54L568.80-5.54Q564.64-12.63 563.87-24.18L563.87-24.18L563.87-24.18Q572.34-39.66 578.19-46.05L578.19-46.05L578.19-46.05Q583.81-52.13 589.67-52.13L589.67-52.13L589.67-52.13Q592.82-52.13 595.09-50.44L595.09-50.44L595.09-50.44Q597.37-48.74 597.90-46.05L597.90-46.05L597.90-46.05Q595.29-44.97 594.05-44.12L594.05-44.12L594.05-44.12Q590.97-41.81 586.82-36.65L586.82-36.65L579.81-28.26L579.81-28.26Q578.12-26.26 577.42-25.33L577.42-25.33L577.42-25.33Q578.58-18.86 582.04-12.47L582.04-12.47L582.04-12.47Q585.35-6.39 588.90-4.54ZM613.92-4.24L613.92-4.24L613.92-4.24Q611.53 1.54 603.91 1.54L603.91 1.54L603.91 1.54Q599.98 1.54 597.52-1.16L597.52-1.16L597.52-1.16Q595.44-3.54 595.44-5.93L595.44-5.93L595.44-5.93Q595.44-12.17 598.29-24.33L598.29-24.33L601.14-39.27L616.77-40.81L612.07-16.48L612.07-16.48Q610.76-10.78 610.76-8.78L610.76-8.78L610.76-8.78Q610.76-4.39 613.92-4.24ZM602.52-49.97L602.52-49.97L602.52-49.97Q602.52-52.98 605.03-54.59L605.03-54.59L605.03-54.59Q607.53-56.21 611.15-56.21L611.15-56.21L611.15-56.21Q614.77-56.21 616.96-54.59L616.96-54.59L616.96-54.59Q619.16-52.98 619.16-49.97L619.16-49.97L619.16-49.97Q619.16-46.97 616.73-45.43L616.73-45.43L616.73-45.43Q614.31-43.89 610.69-43.89L610.69-43.89L610.69-43.89Q607.07-43.89 604.80-45.43L604.80-45.43L604.80-45.43Q602.52-46.97 602.52-49.97ZM644.57-21.64L644.57-21.64L644.57-21.64Q647.34-26.57 647.34-31.57L647.34-31.57L647.34-31.57Q647.34-34.88 644.95-34.88L644.95-34.88L644.95-34.88Q643.10-34.88 641.18-31.72L641.18-31.72L641.18-31.72Q639.18-28.57 638.56-24.49L638.56-24.49L634.56 0L618.62 1.54L626.47-39.27L639.18-40.81L637.79-33.03L637.79-33.03Q641.56-40.81 650.03-40.81L650.03-40.81L650.03-40.81Q654.50-40.81 656.93-38.50L656.93-38.50L656.93-38.50Q659.35-36.19 659.35-31.45L659.35-31.45L659.35-31.45Q659.35-26.72 656.23-23.72L656.23-23.72L656.23-23.72Q653.11-20.71 647.80-20.71L647.80-20.71L647.80-20.71Q645.49-20.71 644.57-21.64ZM661.81-7.70L661.81-7.70L661.81-7.70Q661.81-9.78 662.89-15.02L662.89-15.02L666.97-35.80L662.43-35.80L662.74-38.12L662.74-38.12Q671.98-40.89 680.91-47.66L680.91-47.66L684.61-47.66L682.76-39.27L688.76-39.27L688.07-35.80L682.14-35.80L678.22-15.02L678.22-15.02Q677.21-10.24 677.21-8.62L677.21-8.62L677.21-8.62Q677.21-4.93 680.45-4.16L680.45-4.16L680.45-4.16Q679.68-1.54 676.91 0L676.91 0L676.91 0Q674.13 1.54 670.21 1.54L670.21 1.54L670.21 1.54Q666.28 1.54 664.05-0.92L664.05-0.92L664.05-0.92Q661.81-3.39 661.81-7.70ZM711.40-27.03L711.40-27.03L711.40-27.03Q712.48-29.88 712.48-32.34L712.48-32.34L712.48-32.34Q712.48-36.88 708.78-36.88L708.78-36.88L708.78-36.88Q706.86-36.88 705.28-35.15L705.28-35.15L705.28-35.15Q703.70-33.42 703.70-31.26L703.70-31.26L703.70-31.26Q703.70-29.72 704.93-28.49L704.93-28.49L704.93-28.49Q706.71-26.80 711.25-24.02L711.25-24.02L711.25-24.02Q715.79-21.25 717.52-18.98L717.52-18.98L717.52-18.98Q719.26-16.71 719.26-13.59L719.26-13.59L719.26-13.59Q719.26-10.47 717.76-7.62L717.76-7.62L717.76-7.62Q716.25-4.77 713.56-2.77L713.56-2.77L713.56-2.77Q707.78 1.54 698.54 1.54L698.54 1.54L698.54 1.54Q693.54 1.54 689.69-1.08L689.69-1.08L689.69-1.08Q685.84-3.62 685.84-6.62L685.84-6.62L685.84-6.62Q685.84-9.63 688.03-11.40L688.03-11.40L688.03-11.40Q690.23-13.17 693.46-13.17L693.46-13.17L693.46-13.17Q696.70-13.17 698.70-11.94L698.70-11.94L698.70-11.94Q697.70-9.39 697.70-7.70L697.70-7.70L697.70-7.70Q697.70-2.62 702.01-2.62L702.01-2.62L702.01-2.62Q703.86-2.62 705.09-3.77L705.09-3.77L705.09-3.77Q706.32-4.93 706.32-6.93L706.32-6.93L706.32-6.93Q706.32-10.86 699.70-15.02L699.70-15.02L699.70-15.02Q694.31-18.56 693.08-19.94L693.08-19.94L693.08-19.94Q691.00-22.41 691.00-25.49L691.00-25.49L691.00-25.49Q691.00-28.57 692.46-31.49L692.46-31.49L692.46-31.49Q693.92-34.42 696.62-36.50L696.62-36.50L696.62-36.50Q702.24-40.81 712.02-40.81L712.02-40.81L712.02-40.81Q717.02-40.81 719.99-38.81L719.99-38.81L719.99-38.81Q722.95-36.81 722.95-33.42L722.95-33.42L722.95-33.42Q722.95-30.03 720.91-28.11L720.91-28.11L720.91-28.11Q718.87-26.18 715.18-26.18L715.18-26.18L715.18-26.18Q712.63-26.18 711.40-27.03ZM744.28-4.24L744.28-4.24L744.28-4.24Q741.89 1.54 734.27 1.54L734.27 1.54L734.27 1.54Q730.34 1.54 727.88-1.16L727.88-1.16L727.88-1.16Q725.80-3.54 725.80-5.93L725.80-5.93L725.80-5.93Q725.80-12.17 728.65-24.33L728.65-24.33L731.50-39.27L747.13-40.81L742.43-16.48L742.43-16.48Q741.12-10.78 741.12-8.78L741.12-8.78L741.12-8.78Q741.12-4.39 744.28-4.24ZM732.89-49.97L732.89-49.97L732.89-49.97Q732.89-52.98 735.39-54.59L735.39-54.59L735.39-54.59Q737.89-56.21 741.51-56.21L741.51-56.21L741.51-56.21Q745.13-56.21 747.32-54.59L747.32-54.59L747.32-54.59Q749.52-52.98 749.52-49.97L749.52-49.97L749.52-49.97Q749.52-46.97 747.09-45.43L747.09-45.43L747.09-45.43Q744.67-43.89 741.05-43.89L741.05-43.89L741.05-43.89Q737.43-43.89 735.16-45.43L735.16-45.43L735.16-45.43Q732.89-46.97 732.89-49.97Z" fill="#ffd5af"></path></g></g><style>text {
  font-size: 64px;
  font-family: Arial Black;
  dominant-baseline: central;
  text-anchor: middle;
}</style></svg>