<svg width="1583.82001953125px" height="206.06000366210938px" xmlns="http://www.w3.org/2000/svg" viewBox="-541.910009765625 -28.03000183105469 1583.82001953125 206.06000366210938" style="background: rgb(255, 255, 255);" preserveAspectRatio="xMidYMid"><defs><filter id="editing-hover" x="-100%" y="-100%" width="300%" height="300%"><feFlood flood-color="#667395" result="flood"></feFlood><feComposite operator="in" in2="SourceAlpha" in="flood" result="shadow"></feComposite><feOffset dx="-4" dy="-4" in="SourceGraphic" result="offset-1"></feOffset><feOffset dx="4" dy="4" in="shadow" result="offset-2"></feOffset><feMerge><feMergeNode in="offset-2"></feMergeNode><feMergeNode in="offset-1"></feMergeNode></feMerge></filter></defs><g filter="url(#editing-hover)"><g transform="translate(-315.9571008682251, 128.53499937057495)"><path d="M-12.54 15.87L-12.54 15.87L-12.54 15.87Q-6.67 15.18-2.99 7.59L-2.99 7.59L-2.99 7.59Q0.81-0.12 4.25-17.82L4.25-17.82L15.41-75.90L40.37-75.90L29.21-17.82L29.21-17.82Q24.96 4.71 17.94 13.57L17.94 13.57L17.94 13.57Q14.26 18.17 9.60 20.01L9.60 20.01L9.60 20.01Q4.95 21.85-0.12 21.85L-0.12 21.85L-0.12 21.85Q-5.17 21.85-8.45 20.01L-8.45 20.01L-8.45 20.01Q-11.73 18.17-12.54 15.87ZM79.81-4.83L79.81-4.83L79.81-4.83Q74.29 2.30 60.61 2.30L60.61 2.30L60.61 2.30Q53.48 2.30 48.30-2.01L48.30-2.01L48.30-2.01Q43.13-6.33 43.13-12.54L43.13-12.54L43.13-12.54Q43.13-15.99 43.47-17.71L43.47-17.71L51.18-58.65L74.52-60.95L66.13-16.56L66.13-16.56Q65.67-14.03 65.67-12.54L65.67-12.54L65.67-12.54Q65.67-5.87 69.69-5.87L69.69-5.87L69.69-5.87Q74.18-5.87 77.40-11.96L77.40-11.96L77.40-11.96Q78.43-13.92 78.89-16.45L78.89-16.45L87.06-58.65L109.71-60.95L101.20-16.10L101.20-16.10Q100.86-14.38 100.86-12.54L100.86-12.54L100.86-12.54Q100.86-10.70 101.89-8.68L101.89-8.68L101.89-8.68Q102.93-6.67 106.26-6.21L106.26-6.21L106.26-6.21Q105.57-3.45 103.16-1.61L103.16-1.61L103.16-1.61Q98.09 2.30 92.63 2.30L92.63 2.30L92.63 2.30Q87.17 2.30 83.95 0.35L83.95 0.35L83.95 0.35Q80.73-1.61 79.81-4.83ZM150.31-40.37L150.31-40.37L150.31-40.37Q151.92-44.62 151.92-48.30L151.92-48.30L151.92-48.30Q151.92-55.09 146.40-55.09L146.40-55.09L146.40-55.09Q143.52-55.09 141.16-52.50L141.16-52.50L141.16-52.50Q138.81-49.91 138.81-46.69L138.81-46.69L138.81-46.69Q138.81-44.39 140.65-42.55L140.65-42.55L140.65-42.55Q143.29-40.02 150.07-35.88L150.07-35.88L150.07-35.88Q156.86-31.74 159.45-28.35L159.45-28.35L159.45-28.35Q162.03-24.96 162.03-20.30L162.03-20.30L162.03-20.30Q162.03-15.64 159.79-11.38L159.79-11.38L159.79-11.38Q157.55-7.13 153.53-4.14L153.53-4.14L153.53-4.14Q144.90 2.30 131.10 2.30L131.10 2.30L131.10 2.30Q123.63 2.30 117.88-1.61L117.88-1.61L117.88-1.61Q112.13-5.41 112.13-9.89L112.13-9.89L112.13-9.89Q112.13-14.38 115.40-17.02L115.40-17.02L115.40-17.02Q118.68-19.66 123.51-19.66L123.51-19.66L123.51-19.66Q128.34-19.66 131.33-17.82L131.33-17.82L131.33-17.82Q129.84-14.03 129.84-11.50L129.84-11.50L129.84-11.50Q129.84-3.91 136.28-3.91L136.28-3.91L136.28-3.91Q139.03-3.91 140.88-5.64L140.88-5.64L140.88-5.64Q142.72-7.36 142.72-10.35L142.72-10.35L142.72-10.35Q142.72-16.21 132.82-22.43L132.82-22.43L132.82-22.43Q124.78-27.71 122.94-29.79L122.94-29.79L122.94-29.79Q119.83-33.47 119.83-38.07L119.83-38.07L119.83-38.07Q119.83-42.66 122.02-47.04L122.02-47.04L122.02-47.04Q124.20-51.41 128.22-54.51L128.22-54.51L128.22-54.51Q136.62-60.95 151.23-60.95L151.23-60.95L151.23-60.95Q158.70-60.95 163.13-57.96L163.13-57.96L163.13-57.96Q167.56-54.97 167.56-49.91L167.56-49.91L167.56-49.91Q167.56-44.85 164.51-41.98L164.51-41.98L164.51-41.98Q161.46-39.10 155.94-39.10L155.94-39.10L155.94-39.10Q152.15-39.10 150.31-40.37ZM173.65-11.50L173.65-11.50L173.65-11.50Q173.65-14.61 175.26-22.43L175.26-22.43L181.36-53.48L174.57-53.48L175.03-56.93L175.03-56.93Q188.83-61.07 202.17-71.19L202.17-71.19L207.69-71.19L204.93-58.65L213.90-58.65L212.87-53.48L204.01-53.48L198.15-22.43L198.15-22.43Q196.65-15.29 196.65-12.88L196.65-12.88L196.65-12.88Q196.65-7.36 201.48-6.21L201.48-6.21L201.48-6.21Q200.33-2.30 196.19 0L196.19 0L196.19 0Q192.05 2.30 186.19 2.30L186.19 2.30L186.19 2.30Q180.32 2.30 176.99-1.38L176.99-1.38L176.99-1.38Q173.65-5.06 173.65-11.50ZM285.09-17.71L285.09-17.71L285.09-17.71Q287.27-14.95 287.27-9.60L287.27-9.60L287.27-9.60Q287.27-4.25 283.19-0.98L283.19-0.98L283.19-0.98Q279.11 2.30 271.98 2.30L271.98 2.30L271.98 2.30Q267.83 2.30 261.39 1.38L261.39 1.38L261.39 1.38Q248.75-0.58 245.12-0.58L245.12-0.58L245.12-0.58Q241.50-0.58 240.00-0.40L240.00-0.40L240.00-0.40Q238.51-0.23 236.09 0L236.09 0L250.01-75.90L275.19-75.90L263.69-12.65L263.69-12.65Q265.19-12.42 266.57-12.42L266.57-12.42L269.44-12.42L269.44-12.42Q279.11-12.42 285.09-17.71ZM320.04 2.30L320.04 2.30L320.04 2.30Q294.75 2.30 294.75-21.51L294.75-21.51L294.75-21.51Q294.75-38.41 304.06-49.34L304.06-49.34L304.06-49.34Q313.95-60.95 331.08-60.95L331.08-60.95L331.08-60.95Q343.50-60.95 349.83-55.20L349.83-55.20L349.83-55.20Q356.15-49.45 356.15-37.38L356.15-37.38L356.15-37.38Q356.15-18.98 346.26-8.28L346.26-8.28L346.26-8.28Q336.60 2.30 320.04 2.30ZM323.03-47.73L323.03-47.73L323.03-47.73Q321.65-44.62 320.56-39.96L320.56-39.96L320.56-39.96Q319.47-35.30 318.09-27.95L318.09-27.95L318.09-27.95Q316.71-20.59 316.71-11.50L316.71-11.50L316.71-11.50Q316.71-8.51 317.69-6.56L317.69-6.56L317.69-6.56Q318.66-4.60 321.31-4.60L321.31-4.60L321.31-4.60Q323.95-4.60 325.62-5.87L325.62-5.87L325.62-5.87Q327.29-7.13 328.56-10.12L328.56-10.12L328.56-10.12Q330.85-15.41 332.69-25.24L332.69-25.24L332.69-25.24Q334.53-35.08 334.71-39.33L334.71-39.33L334.71-39.33Q334.88-43.59 334.88-46.75L334.88-46.75L334.88-46.75Q334.88-49.91 333.96-51.98L333.96-51.98L333.96-51.98Q333.04-54.05 330.45-54.05L330.45-54.05L330.45-54.05Q327.87-54.05 326.14-52.44L326.14-52.44L326.14-52.44Q324.41-50.83 323.03-47.73ZM367.94-3.45L367.94-3.45L367.94-3.45Q365.24-6.44 364.03-11.16L364.03-11.16L364.03-11.16Q362.82-15.87 362.82-23.57L362.82-23.57L362.82-23.57Q362.82-31.28 365.47-38.30L365.47-38.30L365.47-38.30Q368.12-45.31 372.94-50.37L372.94-50.37L372.94-50.37Q382.84-60.95 399.17-60.95L399.17-60.95L399.17-60.95Q405.03-60.95 409.29-59.00L409.29-59.00L428.95-60.95L420.44-16.10L420.44-16.10Q420.10-14.72 420.10-12.19L420.10-12.19L420.10-12.19Q420.10-9.66 421.65-8.05L421.65-8.05L421.65-8.05Q423.20-6.44 425.50-6.21L425.50-6.21L425.50-6.21Q424.35-2.30 420.15 0L420.15 0L420.15 0Q415.96 2.30 411.24 2.30L411.24 2.30L411.24 2.30Q406.53 2.30 403.36 0.52L403.36 0.52L403.36 0.52Q400.20-1.27 399.28-4.25L399.28-4.25L399.28-4.25Q397.44-1.38 393.53 0.46L393.53 0.46L393.53 0.46Q389.62 2.30 384.39 2.30L384.39 2.30L384.39 2.30Q379.16 2.30 374.90 0.92L374.90 0.92L374.90 0.92Q370.65-0.46 367.94-3.45ZM392.21-50.14L392.21-50.14L392.21-50.14Q390.88-48.07 389.74-44.56L389.74-44.56L389.74-44.56Q388.59-41.05 386.69-31.68L386.69-31.68L386.69-31.68Q384.79-22.31 384.79-15.64L384.79-15.64L384.79-15.64Q384.79-8.97 385.82-7.02L385.82-7.02L385.82-7.02Q386.86-5.06 388.70-5.06L388.70-5.06L388.70-5.06Q392.38-5.06 395.08-8.57L395.08-8.57L395.08-8.57Q397.79-12.08 398.82-18.29L398.82-18.29L404.92-51.98L404.92-51.98Q402.50-54.05 399.68-54.05L399.68-54.05L399.68-54.05Q396.87-54.05 395.20-53.13L395.20-53.13L395.20-53.13Q393.53-52.21 392.21-50.14ZM476.91-56.70L476.91-56.70L476.91-56.70Q480.70-60.95 487.26-60.95L487.26-60.95L487.26-60.95Q491.28-60.95 494.39-58.77L494.39-58.77L494.39-58.77Q497.49-56.58 497.49-52.50L497.49-52.50L497.49-52.50Q497.49-48.41 496.23-44.05L496.23-44.05L496.23-44.05Q494.96-39.68 493.01-35.19L493.01-35.19L493.01-35.19Q489.10-26.45 483.69-19.21L483.69-19.21L483.69-19.21Q476.10-8.74 468.80-3.22L468.80-3.22L468.80-3.22Q461.50 2.30 453.56 2.30L453.56 2.30L453.56 2.30Q447.12 2.30 443.21 0.81L443.21 0.81L443.21 0.81Q442.52-23.35 441.66-31.97L441.66-31.97L441.66-31.97Q440.80-40.59 440.11-45.31L440.11-45.31L440.11-45.31Q438.96-54.51 435.51-56.70L435.51-56.70L435.51-56.70Q438.15-59.00 440.74-59.97L440.74-59.97L440.74-59.97Q443.33-60.95 448.67-60.95L448.67-60.95L448.67-60.95Q454.02-60.95 457.82-56.75L457.82-56.75L457.82-56.75Q461.61-52.55 462.36-45.14L462.36-45.14L462.36-45.14Q463.11-37.72 463.11-28.75L463.11-28.75L463.11-28.75Q463.11-19.78 462.42-8.97L462.42-8.97L462.42-8.97Q465.98-11.50 469.78-19.21L469.78-19.21L469.78-19.21Q474.95-29.90 476.79-42.78L476.79-42.78L476.79-42.78Q477.37-46.69 477.37-50.83L477.37-50.83L477.37-50.83Q477.37-54.97 476.91-56.70ZM547.17-19.44L547.17-19.44L547.17-19.44Q550.05-17.48 550.05-13.17L550.05-13.17L550.05-13.17Q550.05-8.86 547.86-6.10L547.86-6.10L547.86-6.10Q545.68-3.33 542.11-1.50L542.11-1.50L542.11-1.50Q534.75 2.30 526.82 2.30L526.82 2.30L526.82 2.30Q518.88 2.30 514.22 0.58L514.22 0.58L514.22 0.58Q509.57-1.15 506.46-4.37L506.46-4.37L506.46-4.37Q500.37-10.46 500.37-21.62L500.37-21.62L500.37-21.62Q500.37-38.98 509.80-49.57L509.80-49.57L509.80-49.57Q519.92-60.95 537.51-60.95L537.51-60.95L537.51-60.95Q548.44-60.95 553.84-56.35L553.84-56.35L553.84-56.35Q557.87-52.90 557.87-47.27L557.87-47.27L557.87-47.27Q557.87-27.03 522.91-27.03L522.91-27.03L522.91-27.03Q522.45-24.04 522.45-21.51L522.45-21.51L522.45-21.51Q522.45-16.21 524.80-14.20L524.80-14.20L524.80-14.20Q527.16-12.19 531.53-12.19L531.53-12.19L531.53-12.19Q535.90-12.19 540.56-14.20L540.56-14.20L540.56-14.20Q545.22-16.21 547.17-19.44ZM523.71-31.97L523.71-31.97L523.71-31.97Q531.88-31.97 536.59-37.03L536.59-37.03L536.59-37.03Q541.31-41.86 541.31-49.57L541.31-49.57L541.31-49.57Q541.31-52.21 540.33-53.65L540.33-53.65L540.33-53.65Q539.35-55.09 537.40-55.09L537.40-55.09L537.40-55.09Q535.44-55.09 533.77-54.34L533.77-54.34L533.77-54.34Q532.11-53.59 530.38-51.06L530.38-51.06L530.38-51.06Q526.13-45.31 523.71-31.97ZM596.16-40.37L596.16-40.37L596.16-40.37Q597.77-44.62 597.77-48.30L597.77-48.30L597.77-48.30Q597.77-55.09 592.25-55.09L592.25-55.09L592.25-55.09Q589.38-55.09 587.02-52.50L587.02-52.50L587.02-52.50Q584.66-49.91 584.66-46.69L584.66-46.69L584.66-46.69Q584.66-44.39 586.50-42.55L586.50-42.55L586.50-42.55Q589.15-40.02 595.93-35.88L595.93-35.88L595.93-35.88Q602.72-31.74 605.30-28.35L605.30-28.35L605.30-28.35Q607.89-24.96 607.89-20.30L607.89-20.30L607.89-20.30Q607.89-15.64 605.65-11.38L605.65-11.38L605.65-11.38Q603.41-7.13 599.38-4.14L599.38-4.14L599.38-4.14Q590.76 2.30 576.96 2.30L576.96 2.30L576.96 2.30Q569.48 2.30 563.73-1.61L563.73-1.61L563.73-1.61Q557.98-5.41 557.98-9.89L557.98-9.89L557.98-9.89Q557.98-14.38 561.26-17.02L561.26-17.02L561.26-17.02Q564.54-19.66 569.37-19.66L569.37-19.66L569.37-19.66Q574.20-19.66 577.19-17.82L577.19-17.82L577.19-17.82Q575.69-14.03 575.69-11.50L575.69-11.50L575.69-11.50Q575.69-3.91 582.13-3.91L582.13-3.91L582.13-3.91Q584.89-3.91 586.73-5.64L586.73-5.64L586.73-5.64Q588.57-7.36 588.57-10.35L588.57-10.35L588.57-10.35Q588.57-16.21 578.68-22.43L578.68-22.43L578.68-22.43Q570.63-27.71 568.79-29.79L568.79-29.79L568.79-29.79Q565.69-33.47 565.69-38.07L565.69-38.07L565.69-38.07Q565.69-42.66 567.87-47.04L567.87-47.04L567.87-47.04Q570.06-51.41 574.08-54.51L574.08-54.51L574.08-54.51Q582.48-60.95 597.08-60.95L597.08-60.95L597.08-60.95Q604.56-60.95 608.98-57.96L608.98-57.96L608.98-57.96Q613.41-54.97 613.41-49.91L613.41-49.91L613.41-49.91Q613.41-44.85 610.36-41.98L610.36-41.98L610.36-41.98Q607.32-39.10 601.80-39.10L601.80-39.10L601.80-39.10Q598-39.10 596.16-40.37ZM640.21-0.58L640.21-0.58L654.70-75.90L654.70-75.90Q668.27-77.05 677.01-77.05L677.01-77.05L677.01-77.05Q685.75-77.05 691.38-76.30L691.38-76.30L691.38-76.30Q697.02-75.56 700.81-73.60L700.81-73.60L700.81-73.60Q708.40-69.92 708.40-59.80L708.40-59.80L708.40-59.80Q708.40-53.94 703.34-48.99L703.34-48.99L703.34-48.99Q698.63-44.51 693.45-43.47L693.45-43.47L693.45-43.47Q698.97-42.55 702.88-38.41L702.88-38.41L702.88-38.41Q707.02-34.04 707.02-27.26L707.02-27.26L707.02-27.26Q707.02-14.15 697.25-6.50L697.25-6.50L697.25-6.50Q687.47 1.15 668.27 1.15L668.27 1.15L668.27 1.15Q655.04 1.15 640.21-0.58ZM671.49-37.03L665.74-7.25L665.74-7.25Q666.77-7.13 667.00-7.13L667.00-7.13L668.04-7.13L668.04-7.13Q677.47-7.13 681.49-13.34L681.49-13.34L681.49-13.34Q684.48-18.17 684.48-27.03L684.48-27.03L684.48-27.03Q684.48-31.74 681.43-34.27L681.43-34.27L681.43-34.27Q678.39-36.80 671.49-37.03L671.49-37.03ZM688.97-59.69L688.97-59.69L688.97-59.69Q688.97-69.23 679.77-69.23L679.77-69.23L678.73-69.23L678.73-69.23Q678.27-69.23 677.58-69.12L677.58-69.12L672.98-44.85L674.13-44.85L674.13-44.85Q688.97-45.20 688.97-59.69ZM751.18-13.00L751.18-13.00L751.18-13.00Q745.20-6.79 734.28-6.79L734.28-6.79L734.28-6.79Q720.59-6.79 717.72-16.79L717.72-16.79L717.72-16.79Q716.80-19.78 716.80-23.12L716.80-23.12L716.80-23.12Q716.80-26.45 717.49-29.90L717.49-29.90L722.89-58.65L746.24-60.95L739.91-27.48L739.91-27.48Q739.68-25.99 739.34-24.38L739.34-24.38L739.34-24.38Q738.99-22.77 738.99-21.10L738.99-21.10L738.99-21.10Q738.99-19.44 739.57-18.34L739.57-18.34L739.57-18.34Q740.14-17.25 740.95-16.56L740.95-16.56L740.95-16.56Q742.33-15.64 744.80-15.64L744.80-15.64L744.80-15.64Q747.27-15.64 749.40-18.63L749.40-18.63L749.40-18.63Q751.53-21.62 752.56-26.80L752.56-26.80L758.89-58.65L781.54-60.95L772.92-15.76L772.92-15.76Q768.66 6.33 759.92 15.07L759.92 15.07L759.92 15.07Q755.44 19.55 749.63 21.33L749.63 21.33L749.63 21.33Q743.82 23.12 736.35 23.12L736.35 23.12L736.35 23.12Q724.27 23.12 717.37 19.32L717.37 19.32L717.37 19.32Q710.47 15.53 710.47 9.20L710.47 9.20L710.47 9.20Q710.47 4.49 714.04 1.78L714.04 1.78L714.04 1.78Q717.60-0.92 723.12-0.92L723.12-0.92L723.12-0.92Q727.95-0.92 731.63 1.15L731.63 1.15L731.63 1.15Q733.82 2.42 734.85 4.03L734.85 4.03L734.85 4.03Q732.21 6.33 732.21 10.12L732.21 10.12L732.21 10.12Q732.21 15.18 736.81 15.18L736.81 15.18L736.81 15.18Q744.40 15.18 748.77-2.30L748.77-2.30L748.77-2.30Q750.03-7.48 751.18-13.00ZM832.83 0L808.34 0L821.45-69.92L822.71-75.90L847.32-75.90L832.83 0ZM879.52-6.79L879.52-6.79L879.52-6.79Q876.42 2.30 864.46 2.30L864.46 2.30L864.46 2.30Q855.60 2.30 849.51-8.28L849.51-8.28L849.51-8.28Q843.30-18.86 842.15-36.11L842.15-36.11L842.15-36.11Q854.80-59.23 863.54-68.77L863.54-68.77L863.54-68.77Q871.93-77.86 880.67-77.86L880.67-77.86L880.67-77.86Q885.39-77.86 888.78-75.33L888.78-75.33L888.78-75.33Q892.17-72.80 892.98-68.77L892.98-68.77L892.98-68.77Q889.07-67.16 887.23-65.89L887.23-65.89L887.23-65.89Q882.63-62.45 876.42-54.74L876.42-54.74L865.95-42.20L865.95-42.20Q863.42-39.22 862.39-37.84L862.39-37.84L862.39-37.84Q864.11-28.18 869.29-18.63L869.29-18.63L869.29-18.63Q874.23-9.54 879.52-6.79ZM916.90-6.33L916.90-6.33L916.90-6.33Q913.33 2.30 901.95 2.30L901.95 2.30L901.95 2.30Q896.08 2.30 892.40-1.73L892.40-1.73L892.40-1.73Q889.30-5.29 889.30-8.86L889.30-8.86L889.30-8.86Q889.30-18.17 893.55-36.34L893.55-36.34L897.81-58.65L921.15-60.95L914.14-24.61L914.14-24.61Q912.18-16.10 912.18-13.11L912.18-13.11L912.18-13.11Q912.18-6.56 916.90-6.33ZM899.88-74.64L899.88-74.64L899.88-74.64Q899.88-79.12 903.61-81.53L903.61-81.53L903.61-81.53Q907.35-83.95 912.76-83.95L912.76-83.95L912.76-83.95Q918.16-83.95 921.44-81.53L921.44-81.53L921.44-81.53Q924.72-79.12 924.72-74.64L924.72-74.64L924.72-74.64Q924.72-70.15 921.09-67.85L921.09-67.85L921.09-67.85Q917.47-65.55 912.07-65.55L912.07-65.55L912.07-65.55Q906.66-65.55 903.27-67.85L903.27-67.85L903.27-67.85Q899.88-70.15 899.88-74.64ZM962.67-32.32L962.67-32.32L962.67-32.32Q966.81-39.68 966.81-47.15L966.81-47.15L966.81-47.15Q966.81-52.09 963.24-52.09L963.24-52.09L963.24-52.09Q960.48-52.09 957.61-47.38L957.61-47.38L957.61-47.38Q954.62-42.66 953.70-36.57L953.70-36.57L947.72 0L923.91 2.30L935.64-58.65L954.62-60.95L952.55-49.34L952.55-49.34Q958.18-60.95 970.83-60.95L970.83-60.95L970.83-60.95Q977.50-60.95 981.12-57.50L981.12-57.50L981.12-57.50Q984.75-54.05 984.75-46.98L984.75-46.98L984.75-46.98Q984.75-39.91 980.09-35.42L980.09-35.42L980.09-35.42Q975.43-30.94 967.50-30.94L967.50-30.94L967.50-30.94Q964.05-30.94 962.67-32.32ZM988.43-11.50L988.43-11.50L988.43-11.50Q988.43-14.61 990.04-22.43L990.04-22.43L996.13-53.48L989.35-53.48L989.81-56.93L989.81-56.93Q1003.61-61.07 1016.95-71.19L1016.95-71.19L1022.47-71.19L1019.71-58.65L1028.68-58.65L1027.64-53.48L1018.79-53.48L1012.92-22.43L1012.92-22.43Q1011.43-15.29 1011.43-12.88L1011.43-12.88L1011.43-12.88Q1011.43-7.36 1016.26-6.21L1016.26-6.21L1016.26-6.21Q1015.11-2.30 1010.97 0L1010.97 0L1010.97 0Q1006.83 2.30 1000.96 2.30L1000.96 2.30L1000.96 2.30Q995.10 2.30 991.76-1.38L991.76-1.38L991.76-1.38Q988.43-5.06 988.43-11.50ZM1062.49-40.37L1062.49-40.37L1062.49-40.37Q1064.10-44.62 1064.10-48.30L1064.10-48.30L1064.10-48.30Q1064.10-55.09 1058.58-55.09L1058.58-55.09L1058.58-55.09Q1055.70-55.09 1053.34-52.50L1053.34-52.50L1053.34-52.50Q1050.99-49.91 1050.99-46.69L1050.99-46.69L1050.99-46.69Q1050.99-44.39 1052.83-42.55L1052.83-42.55L1052.83-42.55Q1055.47-40.02 1062.26-35.88L1062.26-35.88L1062.26-35.88Q1069.04-31.74 1071.63-28.35L1071.63-28.35L1071.63-28.35Q1074.22-24.96 1074.22-20.30L1074.22-20.30L1074.22-20.30Q1074.22-15.64 1071.97-11.38L1071.97-11.38L1071.97-11.38Q1069.73-7.13 1065.71-4.14L1065.71-4.14L1065.71-4.14Q1057.08 2.30 1043.28 2.30L1043.28 2.30L1043.28 2.30Q1035.81 2.30 1030.06-1.61L1030.06-1.61L1030.06-1.61Q1024.31-5.41 1024.31-9.89L1024.31-9.89L1024.31-9.89Q1024.31-14.38 1027.58-17.02L1027.58-17.02L1027.58-17.02Q1030.86-19.66 1035.69-19.66L1035.69-19.66L1035.69-19.66Q1040.52-19.66 1043.51-17.82L1043.51-17.82L1043.51-17.82Q1042.02-14.03 1042.02-11.50L1042.02-11.50L1042.02-11.50Q1042.02-3.91 1048.46-3.91L1048.46-3.91L1048.46-3.91Q1051.22-3.91 1053.06-5.64L1053.06-5.64L1053.06-5.64Q1054.90-7.36 1054.90-10.35L1054.90-10.35L1054.90-10.35Q1054.90-16.21 1045.01-22.43L1045.01-22.43L1045.01-22.43Q1036.96-27.71 1035.12-29.79L1035.12-29.79L1035.12-29.79Q1032.01-33.47 1032.01-38.07L1032.01-38.07L1032.01-38.07Q1032.01-42.66 1034.20-47.04L1034.20-47.04L1034.20-47.04Q1036.38-51.41 1040.41-54.51L1040.41-54.51L1040.41-54.51Q1048.80-60.95 1063.41-60.95L1063.41-60.95L1063.41-60.95Q1070.88-60.95 1075.31-57.96L1075.31-57.96L1075.31-57.96Q1079.74-54.97 1079.74-49.91L1079.74-49.91L1079.74-49.91Q1079.74-44.85 1076.69-41.98L1076.69-41.98L1076.69-41.98Q1073.64-39.10 1068.12-39.10L1068.12-39.10L1068.12-39.10Q1064.33-39.10 1062.49-40.37ZM1111.59-6.33L1111.59-6.33L1111.59-6.33Q1108.03 2.30 1096.64 2.30L1096.64 2.30L1096.64 2.30Q1090.78 2.30 1087.10-1.73L1087.10-1.73L1087.10-1.73Q1083.99-5.29 1083.99-8.86L1083.99-8.86L1083.99-8.86Q1083.99-18.17 1088.25-36.34L1088.25-36.34L1092.50-58.65L1115.85-60.95L1108.83-24.61L1108.83-24.61Q1106.88-16.10 1106.88-13.11L1106.88-13.11L1106.88-13.11Q1106.88-6.56 1111.59-6.33ZM1094.57-74.64L1094.57-74.64L1094.57-74.64Q1094.57-79.12 1098.31-81.53L1098.31-81.53L1098.31-81.53Q1102.05-83.95 1107.45-83.95L1107.45-83.95L1107.45-83.95Q1112.86-83.95 1116.13-81.53L1116.13-81.53L1116.13-81.53Q1119.41-79.12 1119.41-74.64L1119.41-74.64L1119.41-74.64Q1119.41-70.15 1115.79-67.85L1115.79-67.85L1115.79-67.85Q1112.17-65.55 1106.76-65.55L1106.76-65.55L1106.76-65.55Q1101.36-65.55 1097.96-67.85L1097.96-67.85L1097.96-67.85Q1094.57-70.15 1094.57-74.64Z" fill="#94a9ce"></path></g></g><style>text {
  font-size: 64px;
  font-family: Arial Black;
  dominant-baseline: central;
  text-anchor: middle;
}</style></svg>